<svg width="54" height="71" viewBox="0 0 54 71" fill="none" xmlns="http://www.w3.org/2000/svg">
<path d="M2.43079 0H18.3695L31.939 24.1784H17.7234L2.43079 0Z" fill="#F4B021"/>
<path d="M35.1698 0H51.1086L35.816 24.1784L28.2774 11.9925L35.1698 0Z" fill="#F4B021"/>
<path d="M26.7697 68.6667C40.4496 68.6667 51.5394 58.7076 51.5394 46.4225C51.5394 34.1374 40.4496 24.1784 26.7697 24.1784C13.0898 24.1784 2 34.1374 2 46.4225C2 58.7076 13.0898 68.6667 26.7697 68.6667Z" stroke="#F4B021" stroke-width="4"/>
<path d="M26.7697 31.9155L31.939 42.554L44.8624 42.9408L34.5237 50.2911L37.9699 61.8967L26.7697 55.1267L15.5695 61.8967L19.0157 50.2911L8.67706 42.9408L21.6004 42.554L26.7697 31.9155Z" fill="#F4B021"/>
</svg>
