<svg width="93" height="79" viewBox="0 0 93 79" fill="none" xmlns="http://www.w3.org/2000/svg">
<path d="M83.2617 15.4091H9.60712V20.0318H83.2617V15.4091Z" fill="#E7AE22"/>
<path d="M4.80356 7.70453H0V27.7363H4.80356V7.70453Z" fill="#E7AE22"/>
<path d="M8.80653 4.62274H5.60416V30.8181H8.80653V4.62274Z" fill="#E7AE22"/>
<path d="M92.8689 7.70453H88.0653V27.7363H92.8689V7.70453Z" fill="#E7AE22"/>
<path d="M87.2647 4.62274H84.0623V30.8181H87.2647V4.62274Z" fill="#E7AE22"/>
<path d="M46.4344 15.4091C50.856 15.4091 54.4404 11.9596 54.4404 7.70453C54.4404 3.44944 50.856 0 46.4344 0C42.0129 0 38.4285 3.44944 38.4285 7.70453C38.4285 11.9596 42.0129 15.4091 46.4344 15.4091Z" fill="#E7AE22"/>
<path d="M28.8214 21.5727C33.6249 15.4091 40.0297 13.8682 46.4344 13.8682C52.8392 13.8682 59.2439 15.4091 64.0475 21.5727L70.4522 32.359C65.6487 35.4408 60.8451 35.4408 56.0416 33.8999L52.8392 26.1954H40.0297L36.8273 33.8999C32.0237 35.4408 27.2202 35.4408 22.4166 32.359L28.8214 21.5727Z" fill="#E7AE22"/>
<path d="M22.4166 20.0318H14.4107L12.8095 30.8181L19.2142 33.9L22.4166 27.7363V20.0318Z" fill="#E7AE22"/>
<path d="M70.4522 20.0318H78.4582L80.0594 30.8181L73.6546 33.9L70.4522 27.7363V20.0318Z" fill="#E7AE22"/>
<path d="M35.2261 26.1954H57.6427L64.0475 52.3908H28.8214L35.2261 26.1954Z" fill="#E7AE22"/>
<path d="M60.8451 41.6044H32.0237V47.7681H60.8451V41.6044Z" fill="#E7AE22"/>
<path d="M35.2261 52.3908L27.2202 78.5862H38.4285L44.8332 53.9317L35.2261 52.3908Z" fill="#E7AE22"/>
<path d="M57.6427 52.3908L65.6487 78.5862H54.4404L48.0356 53.9317L57.6427 52.3908Z" fill="#E7AE22"/>
</svg>
