<svg width="125" height="81" viewBox="0 0 125 81" fill="none" xmlns="http://www.w3.org/2000/svg">
<path fill-rule="evenodd" clip-rule="evenodd" d="M93.2309 57.4525L92.8156 57.8066V72.0591L93.5423 72.9443L94.1653 73.1214H95.6188L96.3455 72.8558L96.8646 72.2361L96.9684 57.8951L96.8646 57.6296L96.4493 57.4525H93.2309Z" fill="#F4B021"/>
<path fill-rule="evenodd" clip-rule="evenodd" d="M93.0232 52.141L93.1271 52.7607L92.8156 55.2393L93.1271 55.7705H106.728L107.454 55.5049L108.181 54.6197L108.077 52.6721L107.558 52.141L106.831 51.7869L93.4385 51.6984L93.0232 52.141Z" fill="#F4B021"/>
<path fill-rule="evenodd" clip-rule="evenodd" d="M47.9651 49.5738L44.539 46.8295L44.0199 46.6525L29.3812 46.741L28.343 46.918L27.201 47.3607L26.059 48.2459L25.5399 49.1312L25.436 49.7508L25.8513 50.0164H47.6537L47.9651 49.8394V49.5738Z" fill="#F4B021"/>
<path fill-rule="evenodd" clip-rule="evenodd" d="M74.5432 44.4393L73.4012 44.9704L71.6362 46.2098L70.2865 47.9803L69.9751 49.2196L69.7674 49.3967V49.8393L70.1827 50.2819L80.0457 51.7868L81.1877 52.2294L81.9144 52.8491L82.3297 53.8229L82.745 64.1803L83.2641 70.9967V72.236L82.745 75.0688V77.0163L83.2641 78.6098L83.7832 79.318H83.9909L84.8214 79.9376L86.5864 80.5573L88.3513 80.9114L93.2309 80.9999L94.7882 80.7344L96.1379 80.2917L96.8646 79.6721L97.1761 78.6983L97.0722 77.7245L96.5531 76.7508L95.0997 75.6885L94.0615 75.2458L93.9576 75.0688H93.6462L90.9468 73.6524L90.2201 73.0327L89.701 72.0589L91.0507 51.8753L90.9468 49.1311L90.3239 47.4491L89.8048 46.7409L89.1819 46.2098L87.936 45.5016L85.5482 44.7048L83.0565 44.2622L82.745 44.0852L79.0075 43.7311L76.5158 43.9081L74.5432 44.4393Z" fill="#F4B021"/>
<path fill-rule="evenodd" clip-rule="evenodd" d="M92.8156 30.1869V38.5082L93.0232 38.7738L96.657 39.0394L96.8646 38.8623V38.2426L97.0722 38.0656L101.848 37.9771L102.367 37.623L102.679 36.8262V35.7639L102.471 35.2328L101.952 34.7902L97.0722 34.7017L96.8646 34.5246V30.2754L96.657 30.0099L93.1271 29.9213L92.8156 30.1869Z" fill="#F4B021"/>
<path fill-rule="evenodd" clip-rule="evenodd" d="M12.2508 35.4098L12.147 37.1803L12.6661 37.8L13.0814 37.977H18.2724L18.5839 38.2426V68.7836L18.3762 69.0492L12.8738 69.1377L12.4585 69.4033L12.147 69.9344L12.0432 70.9082L12.147 71.4393L12.4585 71.882L13.1852 72.236L18.4801 72.3246L18.5839 76.5738L18.7915 77.0164L19.8297 77.636H22.1138L23.152 77.0164L23.4635 76.1311V55.859L23.7749 55.5934L80.2533 55.5049V54.3541L79.4228 53.6459L73.1935 52.7606L71.0133 52.318L67.2757 51.8754L66.7566 51.6983H23.7749L23.3596 51.4328V29.2131L22.9444 29.1246L21.0756 29.8328L18.6877 30.0098L18.5839 34.5246L18.3762 34.7016H13.3929L12.7699 34.8787L12.2508 35.4098Z" fill="#F4B021"/>
<path fill-rule="evenodd" clip-rule="evenodd" d="M63.9535 29.4787L62.9153 28.1508L61.5656 27.0885L60.5274 26.5574L58.9701 26.1148L58.1395 26.0262L56.3746 26.1148L55.0249 26.4689L53.6752 27.0885L52.2218 28.1508L50.9759 29.9213L50.4568 31.1607L50.353 31.9574L50.4568 33.6394L50.8721 34.7902L51.495 35.4984H51.9103L53.0523 34.7902L56.8937 33.3738L58.6586 32.9312L60.8389 32.6656L61.1503 32.4885L64.1611 32.223L64.5764 31.8689V30.9836L63.9535 29.4787Z" fill="#F4B021"/>
<path fill-rule="evenodd" clip-rule="evenodd" d="M89.8048 17.705L89.3895 18.0591L89.4934 20.1836L89.8048 21.423L90.0125 23.7246L90.7392 26.1148L91.2583 26.9115L92.1927 27.7968L93.0233 28.1509L94.2691 28.3279L94.5806 28.0623L93.9576 27.2656L94.0615 26.1148L93.5424 25.8492L93.0233 25.3181L92.4003 23.9017L91.8812 20.8033L91.7774 18.0591L91.4659 17.705H89.8048Z" fill="#F4B021"/>
<path fill-rule="evenodd" clip-rule="evenodd" d="M56.7899 17.6163H54.7135L54.1944 17.7049L53.9867 17.9704L53.8829 24.6983L54.1944 25.2294L55.9593 24.7868L56.9975 24.6983L57.309 24.3442L57.4128 18.059L57.1013 17.7049L56.7899 17.6163Z" fill="#F4B021"/>
<path fill-rule="evenodd" clip-rule="evenodd" d="M50.6644 17.6163H48.1728L47.6537 17.9704V34.0819L47.9651 34.5245L48.4842 34.7016H48.8995L49.0033 34.5245L48.6919 33.2852V31.6032L48.8995 30.6294L49.8339 28.5934L50.4568 27.7967H50.6644L50.5606 27.7081L50.8721 27.354V17.8819L50.6644 17.6163Z" fill="#F4B021"/>
<path fill-rule="evenodd" clip-rule="evenodd" d="M40.9053 13.2787L41.2168 14.0755V15.1378L41.0091 15.8459L41.3206 16.1115H77.554L78.2807 15.8459L78.5922 15.0492V14.0755L78.3846 13.5443L78.0731 13.2787H58.6586L41.6321 13.1017L40.9053 13.2787Z" fill="#F4B021"/>
<path fill-rule="evenodd" clip-rule="evenodd" d="M90.4277 13.1902L90.6354 14.0755L90.5316 15.6689L90.3239 15.846L90.6354 16.1115H94.0615L94.5806 15.9345L94.7882 15.4033V13.8984L94.6844 13.3673L94.2691 13.0132H90.7392L90.4277 13.1902Z" fill="#F4B021"/>
<path fill-rule="evenodd" clip-rule="evenodd" d="M83.887 10.3574L82.8488 10.5344L81.9144 11.0656L80.6686 11.3311L80.2533 11.6852L79.838 12.482V12.9246L80.2533 13.8098V15.2262L79.838 16.2885L80.1495 16.8197L80.8762 17.4393L81.3953 17.6164L81.7068 17.9705L81.8106 30.6295L78.7998 33.7279L78.696 34.259L79.4228 34.4361L79.7342 34.7016L82.6412 35.8524L83.4718 36.3836L84.9252 37.0033H85.2367L85.8596 36.2951L87.3131 33.6393L87.5208 33.5508L88.2475 31.5147L88.3513 30.1869L88.0399 26.8229L88.1437 26.6459L87.8322 24.3442L87.4169 17.5279L88.1437 16.9082L88.6628 16.1115L88.9742 15.1377V14.1639L88.7666 13.5442L88.1437 12.836L88.0399 12.3049L87.5208 11.5967L86.794 11.2426L86.1711 11.1541L85.1329 10.5344L83.887 10.3574Z" fill="#F4B021"/>
<path fill-rule="evenodd" clip-rule="evenodd" d="M26.5781 13.2788L26.4743 15.6689L26.6819 16.023L30.108 16.1115L30.3156 16.2886L30.4194 16.8197L30.9385 17.4394V25.4952L31.1462 31.2493L31.3538 32.5771L32.2882 34.7017L32.7035 34.9673L33.1188 35.4984L37.8945 39.482L39.4518 40.5443L45.162 45.2361L45.6811 45.5017L47.0307 46.7411L49.1071 48.246L51.0797 49.1312L52.5332 49.3968H64.5764L65.1993 49.5738L67.3796 49.7509L67.7948 49.3968L68.1063 47.9804L69.2483 46.0329L70.1827 45.0591L70.7018 44.7935V44.6165L71.5324 43.9968L72.9859 43.2001L74.8547 42.4919L77.2425 42.0493L79.5266 41.9607L82.3297 42.2263L82.745 42.4034L84.9252 42.7575L87.8322 43.5542L90.0125 44.5279L91.1545 45.4132L92.0889 46.4755L92.608 47.4493L93.2309 50.105H106.52L107.662 50.3706L108.493 50.7247L109.635 51.787L110.05 52.7607L110.154 54.6197L109.842 55.3279V55.7706L110.154 57.0099L110.361 59.4886L110.777 61.5247L111.711 68.7837L111.503 69.0493L107.973 69.1378L107.35 69.846V71.3509L107.558 71.7935L108.596 72.2361H110.88V74.2722L111.088 74.8034L111.919 75.6001L112.749 75.8657L115.864 76.2197H121.262L122.612 76.1312L123.858 75.7771L124.689 75.1575L125 74.5378V73.6525L124.377 72.5017L122.82 71.4394L117.94 69.3148L117.733 69.0493V48.8656L117.11 46.4755L116.071 44.9706L115.033 44.0853L114.306 43.6427L112.957 43.1115L111.296 42.846L110.569 42.5804L108.285 42.3148L107.454 42.0493L105.378 41.8722L104.963 41.6952L102.159 41.3411H101.329L101.017 41.164L97.799 40.8984L97.3837 40.7214L88.3513 39.9247L87.2093 39.6591L83.4718 38.0656L83.3679 37.8886L80.0457 36.5607L79.5266 36.2066L77.6578 35.587L77.2425 35.3214L73.8164 34.2591L70.8056 33.7279L64.9917 33.6394L59.8007 34.2591L56.1669 35.2329L53.3638 36.3837L51.0797 37.7115L50.4568 37.623L47.446 36.0296L47.0307 35.6755L46.5116 35.587L44.4352 34.3476L39.0365 31.6919L38.6213 31.2493L37.8945 26.2919V25.4066L37.6869 24.787L36.7525 17.7935L37.064 17.5279L37.7907 17.3509L38.4136 16.8197L38.6213 16.3771L39.1404 16.023L39.4518 15.5804L39.6595 14.8722L39.5556 13.987L39.0365 13.0132L38.7251 12.7476L38.6213 12.2165L38.206 11.5968L37.7907 11.2427L36.7525 11.0656L35.9219 10.5345L34.5723 10.2689L32.8073 10.623L32.1844 11.0656H31.6653L31.1462 11.3312L30.5233 11.8624L29.9003 13.0132H26.8895L26.5781 13.2788Z" fill="#F4B021"/>
<path fill-rule="evenodd" clip-rule="evenodd" d="M107.454 3.36401L106.728 3.45254L106.312 3.80664L106.831 5.75418L107.143 7.79024L107.454 11.6853L107.351 18.3247L106.831 22.3968L106.312 24.5214L106.416 24.6984L106.935 24.8755H108.596L109.635 24.6984L110.465 24.2558L111.296 23.105L111.919 20.3607L112.23 16.2886L112.542 16.1116L117.94 16.023L118.563 15.4919L118.459 15.4034L118.667 15.0493V13.1017L118.252 12.5706L117.317 12.305H112.645L112.23 12.1279L112.022 8.49844L111.296 4.95746L110.465 3.98369L109.427 3.54106L107.454 3.36401Z" fill="#F4B021"/>
<path fill-rule="evenodd" clip-rule="evenodd" d="M10.2782 3.36401L9.44768 3.54106L8.51329 3.98369L7.78655 4.78041L7.37126 5.75418L7.16362 7.61319L7.0598 12.0394L6.5407 12.305L1.03821 12.3935L0.622924 12.5706L0.103821 13.1902L0 14.3411L0.207641 15.4919L0.519103 15.846L1.24585 16.1116H6.85216L7.0598 16.2886L7.16362 20.9804L7.5789 23.105L7.99419 23.8132L9.24003 24.6984L10.1744 24.8755H12.0432L12.5623 24.6984L13.0814 24.0788L13.6005 20.6263V7.34762L13.289 5.04598L12.9776 4.16073L13.0814 4.07221L12.4585 3.45254L10.2782 3.36401Z" fill="#F4B021"/>
<path fill-rule="evenodd" clip-rule="evenodd" d="M97.4875 0.0885246L96.3455 0.531148L95.6188 1.41639V2.65574L96.0341 3.09836L96.3455 4.3377L96.5532 4.51475L96.8646 6.81639L97.0723 7.34754L97.3837 11.4197V16.377L97.0723 20.4492L96.8646 20.8918L96.5532 23.3705L95.8264 25.318L94.892 26.1148V27.2656L94.9958 27.6197L95.3073 27.8852L95.8264 27.7967L96.1379 28.0623L96.8646 28.3279L101.433 28.4164L102.99 28.0623L104.028 27.4426L104.651 26.2918L104.859 24.9639L105.17 24.1672L105.378 21.9541L105.586 21.5115L105.897 17.882V9.56066L105.586 5.66557L105.378 5.13443L105.066 2.56721L104.859 2.39016V2.03607L104.444 1.15082L103.821 0.531148L102.679 0.0885246L101.848 0L97.4875 0.0885246Z" fill="#F4B021"/>
<path fill-rule="evenodd" clip-rule="evenodd" d="M50.9759 0.177049L49.9377 0.619672L48.6919 1.68197L48.1728 2.47869L47.6537 3.98361V11.4197L47.9651 11.6852H50.5606L50.7683 11.5082L50.8721 4.42623L51.0797 3.71803L51.3912 3.27541L51.9103 2.83279L52.8447 2.65574L53.6752 3.09836L53.9867 3.89508L54.0905 11.5967L56.9975 11.6852L57.309 11.3311V4.16066L56.9975 2.56721L56.7899 2.39016L56.8937 2.30164L55.4402 0.796721L54.0905 0.0885246L51.7027 0L50.9759 0.177049Z" fill="#F4B021"/>
<path fill-rule="evenodd" clip-rule="evenodd" d="M16.196 0.0885246L14.8463 0.796721L14.3272 1.85902V2.21311L15.1578 3.71803L15.4693 5.4L15.6769 5.7541L16.196 11.1541V16.5541L15.7807 21.5115L15.4693 22.4852L15.1578 24.6098L14.9502 24.7869L14.7425 25.5836L14.3272 26.2033V26.9115L14.7425 27.6197L15.6769 28.1508L16.5075 28.3279H20.7641L22.1138 27.8852L22.6329 27.5311L23.2558 26.6459L23.6711 25.5836L24.3978 21.9541L24.8131 17.882V9.91475L24.1902 4.42623L23.9826 4.16066L23.7749 2.65574L23.2558 1.41639L22.1138 0.442623L21.2832 0.0885246L20.4527 0L16.196 0.0885246Z" fill="#F4B021"/>
</svg>
