<svg width="40" height="34" viewBox="0 0 40 34" fill="none" xmlns="http://www.w3.org/2000/svg">
<path d="M18.5716 16.9936C18.5716 17.3692 18.4211 17.7294 18.1532 17.995C17.8853 18.2606 17.5219 18.4098 17.143 18.4098H8.57151C8.19263 18.4098 7.82926 18.2606 7.56135 17.995C7.29344 17.7294 7.14293 17.3692 7.14293 16.9936C7.14293 16.618 7.29344 16.2578 7.56135 15.9923C7.82926 15.7267 8.19263 15.5775 8.57151 15.5775H17.143C17.5219 15.5775 17.8853 15.7267 18.1532 15.9923C18.4211 16.2578 18.5716 16.618 18.5716 16.9936ZM17.143 9.91295H8.57151C8.19263 9.91295 7.82926 10.0622 7.56135 10.3277C7.29344 10.5933 7.14293 10.9535 7.14293 11.3291C7.14293 11.7047 7.29344 12.0649 7.56135 12.3304C7.82926 12.596 8.19263 12.7452 8.57151 12.7452H17.143C17.5219 12.7452 17.8853 12.596 18.1532 12.3304C18.4211 12.0649 18.5716 11.7047 18.5716 11.3291C18.5716 10.9535 18.4211 10.5933 18.1532 10.3277C17.8853 10.0622 17.5219 9.91295 17.143 9.91295ZM37.1432 21.5023V32.5711C37.1455 32.8208 37.0811 33.0666 36.9567 33.2837C36.8322 33.5007 36.6521 33.6813 36.4345 33.8071C36.217 33.9329 35.9697 33.9994 35.7179 34C35.466 34.0005 35.2185 33.9351 35.0003 33.8102L30.7146 31.378L26.4288 33.8102C26.2107 33.9351 25.9632 34.0005 25.7113 34C25.4595 33.9994 25.2122 33.9329 24.9947 33.8071C24.7771 33.6813 24.597 33.5007 24.4725 33.2837C24.348 33.0666 24.2837 32.8208 24.286 32.5711V28.3227H2.85717C2.0994 28.3227 1.37267 28.0243 0.836846 27.4932C0.301022 26.962 0 26.2416 0 25.4904V2.83227C0 2.08111 0.301022 1.36071 0.836846 0.829553C1.37267 0.298399 2.0994 0 2.85717 0H34.2861C35.0438 0 35.7706 0.298399 36.3064 0.829553C36.8422 1.36071 37.1432 2.08111 37.1432 2.83227V8.2366C38.0463 9.09386 38.765 10.1235 39.2559 11.2634C39.7469 12.4033 40 13.63 40 14.8694C40 16.1089 39.7469 17.3355 39.2559 18.4755C38.765 19.6154 38.0463 20.645 37.1432 21.5023ZM24.286 25.4904V21.5023C22.7292 20.0139 21.7453 18.0336 21.5041 15.9031C21.2629 13.7725 21.7796 11.6252 22.9649 9.83193C24.1502 8.03862 25.9298 6.7117 27.9967 6.08015C30.0635 5.4486 32.2879 5.55203 34.2861 6.37261V2.83227H2.85717V25.4904H24.286ZM34.2861 23.3662C33.1547 23.8348 31.9407 24.0761 30.7146 24.0761C29.4884 24.0761 28.2745 23.8348 27.1431 23.3662V30.1318L30.0003 28.5104C30.2162 28.388 30.4606 28.3237 30.7092 28.3237C30.9579 28.3237 31.2023 28.388 31.4182 28.5104L34.2753 30.1318L34.2861 23.3662ZM37.1432 14.8694C37.1432 13.609 36.7662 12.377 36.0598 11.329C35.3534 10.281 34.3494 9.46423 33.1747 8.9819C32 8.49957 30.7075 8.37337 29.4604 8.61926C28.2134 8.86515 27.0679 9.47208 26.1689 10.3633C25.2698 11.2545 24.6575 12.39 24.4095 13.6262C24.1614 14.8624 24.2887 16.1437 24.7753 17.3081C25.2619 18.4726 26.0858 19.4678 27.143 20.1681C28.2002 20.8683 29.4431 21.242 30.7146 21.242C31.5588 21.242 32.3948 21.0772 33.1747 20.757C33.9547 20.4367 34.6634 19.9673 35.2603 19.3755C35.8573 18.7838 36.3308 18.0813 36.6539 17.3081C36.9769 16.535 37.1432 15.7063 37.1432 14.8694Z" fill="#FF0004"/>
</svg>
