<svg width="33" height="31" viewBox="0 0 33 31" fill="none" xmlns="http://www.w3.org/2000/svg">
<path d="M28.206 15.4999C32.4425 9.91176 34.6028 4.13636 31.5986 1.31404C28.5944 -1.50827 22.4469 0.521276 16.4987 4.50125C10.5505 0.521276 4.40289 -1.50827 1.39872 1.31404C-1.60546 4.13636 0.554866 9.91176 4.79131 15.4999C0.554866 21.088 -1.60546 26.8634 1.39872 29.6857C2.36631 30.5947 3.65872 31 5.16425 31C8.34029 31 12.465 29.1965 16.5073 26.4985C20.5323 29.1965 24.657 31 27.8417 31C29.3472 31 30.6413 30.5931 31.6072 29.6857C34.6028 26.8634 32.4425 21.088 28.206 15.4999ZM29.6548 3.14015C30.9679 4.3737 30.081 8.37144 26.4719 13.3573C25.3301 12.0294 24.1145 10.7591 22.8301 9.55171C21.5447 8.34673 20.1926 7.20632 18.7793 6.13523C24.0864 2.74457 28.3418 1.90498 29.6548 3.14015ZM24.798 15.4999C23.5818 16.9452 22.2756 18.3216 20.8863 19.6219C19.5022 20.9271 18.0371 22.1542 16.4987 23.2968C14.9602 22.1542 13.4951 20.9271 12.111 19.6219C10.7217 18.3216 9.41551 16.9452 8.19936 15.4999C10.6393 12.6113 13.424 9.99525 16.4987 7.703C18.0371 8.84553 19.5022 10.0726 20.8863 11.3778C22.2756 12.6781 23.5818 14.0546 24.798 15.4999ZM3.34249 3.14015C3.72059 2.78332 4.34446 2.59926 5.16769 2.59926C7.19911 2.59926 10.4422 3.71333 14.2163 6.13523C12.8043 7.20719 11.4528 8.34757 10.1672 9.55171C8.88458 10.7593 7.67068 12.0296 6.53057 13.3573C2.92143 8.37144 2.02946 4.3737 3.34249 3.14015ZM3.34249 27.8596C2.02946 26.6261 2.92143 22.6283 6.53057 17.6425C7.67235 18.9703 8.88797 20.2406 10.1724 21.4481C11.4569 22.6521 12.8073 23.7924 14.218 24.8645C8.91088 28.2552 4.65553 29.0948 3.34249 27.8596ZM29.6548 27.8596C28.3418 29.0948 24.0864 28.26 18.7793 24.8694C20.1919 23.7958 21.544 22.6539 22.8301 21.4481C24.1127 20.2405 25.3266 18.9702 26.4668 17.6425C30.0759 22.6283 30.9679 26.6261 29.6548 27.8596ZM18.561 15.4999C18.561 15.8831 18.4401 16.2577 18.2135 16.5763C17.9868 16.8949 17.6647 17.1433 17.2879 17.2899C16.911 17.4366 16.4964 17.4749 16.0963 17.4002C15.6963 17.3254 15.3288 17.1409 15.0403 16.8699C14.7519 16.5989 14.5555 16.2537 14.4759 15.8779C14.3963 15.502 14.4372 15.1125 14.5933 14.7584C14.7494 14.4044 15.0137 14.1018 15.3529 13.8889C15.692 13.676 16.0908 13.5624 16.4987 13.5624C17.0456 13.5624 17.5702 13.7665 17.957 14.1299C18.3437 14.4932 18.561 14.986 18.561 15.4999Z" fill="#FF0000"/>
</svg>
