<svg width="61" height="54" viewBox="0 0 61 54" fill="none" xmlns="http://www.w3.org/2000/svg">
<g filter="url(#filter0_d_55_2)">
<rect x="4" width="53" height="46" fill="black" shape-rendering="crispEdges"/>
<rect x="4.25" y="0.25" width="52.5" height="45.5" stroke="black" stroke-width="0.5" shape-rendering="crispEdges"/>
<path d="M19.5248 0.161032C16.7052 0.276415 14.7797 0.667032 13.0963 1.24088C11.3544 1.83026 9.87766 2.62088 8.40846 3.90064C6.93947 5.1804 6.0345 6.46284 5.36051 7.97739C4.70817 9.44134 4.26606 11.114 4.14151 13.5626C4.01696 16.0111 3.98936 16.7983 4.00327 23.0443C4.01696 29.29 4.04876 30.0729 4.18546 32.5266C4.32017 34.9733 4.76846 36.644 5.42986 38.1055C6.11002 39.6175 7.01986 40.8986 8.49502 42.1742C9.96997 43.4497 11.4465 44.2332 13.1955 44.8192C14.8809 45.3846 16.8085 45.77 19.6292 45.8772C22.4499 45.9845 23.3578 46.0094 30.5521 45.9973C37.7464 45.9855 38.6522 45.9577 41.4785 45.8413C44.3051 45.725 46.2198 45.333 47.9043 44.7617C49.6464 44.1702 51.1236 43.3817 52.5921 42.1011C54.0607 40.8204 54.965 39.537 55.6385 38.0217C56.2915 36.5589 56.7352 34.886 56.8575 32.4396C56.9812 29.9846 57.0103 29.2008 56.9967 22.9559C56.9827 16.7109 56.9503 15.9279 56.8162 13.4752C56.6822 11.0224 56.2332 9.35682 55.5723 7.8944C54.8912 6.38234 53.9823 5.1022 52.508 3.8257C51.0335 2.5492 49.5535 1.7649 47.8084 1.18166C46.1217 0.615282 44.1954 0.229457 41.3747 0.123657C38.554 0.0178572 37.6461 -0.00955115 30.4492 0.00271551C23.2522 0.0145988 22.3512 0.0414322 19.5248 0.161032ZM19.8344 41.7395C17.2506 41.6419 15.8477 41.2693 14.9127 40.9575C13.6747 40.5435 12.7927 40.043 11.861 39.2421C10.929 38.4413 10.3569 37.6731 9.87346 36.6009C9.51041 35.7894 9.07316 34.5731 8.95237 32.3306C8.82097 29.9069 8.79337 29.1792 8.77791 23.0386C8.76245 16.8981 8.78961 16.1711 8.91196 13.7466C9.02237 11.506 9.45432 10.287 9.81296 9.47584C10.29 8.40002 10.8646 7.63584 11.7894 6.82777C12.7143 6.01952 13.5967 5.52176 14.8332 5.1022C15.7673 4.78576 17.1685 4.40952 19.7511 4.30276C22.5458 4.18776 23.3832 4.16476 30.4571 4.15134C37.5311 4.13792 38.3707 4.16092 41.1664 4.26787C43.748 4.36524 45.1531 4.7365 46.0866 5.04987C47.325 5.46387 48.2066 5.96106 49.1376 6.76529C50.0689 7.56914 50.6428 8.33236 51.1262 9.4078C51.4913 10.2161 51.925 11.4318 52.0469 13.6749C52.1798 16.1004 52.2101 16.8278 52.2227 22.9669C52.2355 29.106 52.2105 29.8351 52.088 32.2589C51.9753 34.5014 51.5469 35.7194 51.187 36.5319C50.71 37.606 50.1351 38.3719 49.2096 39.1796C48.2843 39.9874 47.403 40.485 46.1659 40.9046C45.2331 41.2206 43.8301 41.5978 41.2497 41.7046C38.4548 41.8186 37.6174 41.8426 30.5408 41.856C23.4642 41.8694 22.629 41.8445 19.8344 41.7395ZM41.4378 10.7073C41.4389 11.2532 41.6264 11.7866 41.9768 12.24C42.3272 12.6934 42.8246 13.0464 43.4061 13.2545C43.9877 13.4625 44.6272 13.5162 45.2439 13.4087C45.8606 13.3012 46.4267 13.0374 46.8706 12.6506C47.3146 12.2639 47.6164 11.7716 47.7379 11.2359C47.8594 10.7003 47.7952 10.1454 47.5534 9.64144C47.3115 9.13749 46.9029 8.70711 46.3792 8.40473C45.8555 8.10235 45.2402 7.94156 44.6112 7.9427C43.7681 7.94422 42.9601 8.23631 42.365 8.75474C41.7699 9.27317 41.4364 9.9755 41.4378 10.7073ZM16.8933 23.023C16.9081 29.5458 23.0117 34.8215 30.5254 34.8092C38.0394 34.7967 44.1221 29.4998 44.1079 22.977C44.0936 16.4542 37.9886 11.1771 30.4737 11.1899C22.9587 11.2028 16.8792 16.501 16.8933 23.023ZM21.6666 23.0148C21.6632 21.4985 22.1779 20.0153 23.1456 18.7529C24.1133 17.4905 25.4907 16.5055 27.1034 15.9224C28.7162 15.3394 30.4919 15.1845 32.2061 15.4774C33.9202 15.7702 35.4958 16.4977 36.7336 17.5677C37.9714 18.6378 38.8159 20.0024 39.1601 21.489C39.5043 22.9756 39.333 24.5174 38.6676 25.9194C38.0023 27.3215 36.8728 28.5208 35.4221 29.3657C33.9715 30.2107 32.2647 30.6633 30.5176 30.6663C29.3576 30.6684 28.2084 30.4722 27.1357 30.0888C26.0631 29.7054 25.0879 29.1423 24.266 28.4318C23.4441 27.7213 22.7915 26.8772 22.3455 25.9477C21.8995 25.0182 21.6688 24.0216 21.6666 23.0148Z" fill="#E7AE22"/>
</g>
<defs>
<filter id="filter0_d_55_2" x="0" y="0" width="61" height="54.0001" filterUnits="userSpaceOnUse" color-interpolation-filters="sRGB">
<feFlood flood-opacity="0" result="BackgroundImageFix"/>
<feColorMatrix in="SourceAlpha" type="matrix" values="0 0 0 0 0 0 0 0 0 0 0 0 0 0 0 0 0 0 127 0" result="hardAlpha"/>
<feOffset dy="4"/>
<feGaussianBlur stdDeviation="2"/>
<feComposite in2="hardAlpha" operator="out"/>
<feColorMatrix type="matrix" values="0 0 0 0 0 0 0 0 0 0 0 0 0 0 0 0 0 0 0.25 0"/>
<feBlend mode="normal" in2="BackgroundImageFix" result="effect1_dropShadow_55_2"/>
<feBlend mode="normal" in="SourceGraphic" in2="effect1_dropShadow_55_2" result="shape"/>
</filter>
</defs>
</svg>
