<svg width="53" height="43" viewBox="0 0 53 43" fill="none" xmlns="http://www.w3.org/2000/svg">
<path d="M48.9231 0H4.07692C2.99566 0 1.95867 0.348488 1.1941 0.9688C0.429532 1.58911 0 2.43044 0 3.30769V39.6923C0 40.5696 0.429532 41.4109 1.1941 42.0312C1.95867 42.6515 2.99566 43 4.07692 43H48.9231C50.0043 43 51.0413 42.6515 51.8059 42.0312C52.5705 41.4109 53 40.5696 53 39.6923V3.30769C53 2.43044 52.5705 1.58911 51.8059 0.9688C51.0413 0.348488 50.0043 0 48.9231 0ZM48.9231 39.6923H4.07692V3.30769H48.9231V39.6923ZM18.3462 18.1923V31.4231C18.3462 31.8617 18.1314 32.2824 17.7491 32.5925C17.3668 32.9027 16.8483 33.0769 16.3077 33.0769C15.7671 33.0769 15.2486 32.9027 14.8663 32.5925C14.484 32.2824 14.2692 31.8617 14.2692 31.4231V18.1923C14.2692 17.7537 14.484 17.333 14.8663 17.0229C15.2486 16.7127 15.7671 16.5385 16.3077 16.5385C16.8483 16.5385 17.3668 16.7127 17.7491 17.0229C18.1314 17.333 18.3462 17.7537 18.3462 18.1923ZM40.7692 23.9808V31.4231C40.7692 31.8617 40.5545 32.2824 40.1722 32.5925C39.7899 32.9027 39.2714 33.0769 38.7308 33.0769C38.1901 33.0769 37.6716 32.9027 37.2894 32.5925C36.9071 32.2824 36.6923 31.8617 36.6923 31.4231V23.9808C36.6923 22.8842 36.1554 21.8325 35.1997 21.0572C34.244 20.2818 32.9477 19.8462 31.5962 19.8462C30.2446 19.8462 28.9483 20.2818 27.9926 21.0572C27.0369 21.8325 26.5 22.8842 26.5 23.9808V31.4231C26.5 31.8617 26.2852 32.2824 25.9029 32.5925C25.5207 32.9027 25.0022 33.0769 24.4615 33.0769C23.9209 33.0769 23.4024 32.9027 23.0201 32.5925C22.6378 32.2824 22.4231 31.8617 22.4231 31.4231V18.1923C22.4256 17.7872 22.6113 17.3969 22.945 17.0956C23.2786 16.7942 23.737 16.6026 24.2332 16.5572C24.7293 16.5119 25.2288 16.6158 25.6368 16.8494C26.0447 17.0829 26.3329 17.4299 26.4465 17.8243C27.8255 17.0654 29.4332 16.6255 31.0971 16.5519C32.761 16.4784 34.4181 16.7739 35.8906 17.4069C37.363 18.0398 38.5952 18.9861 39.4547 20.1443C40.3142 21.3025 40.7687 22.6288 40.7692 23.9808ZM19.3654 12.4038C19.3654 12.8945 19.1861 13.3741 18.8501 13.7821C18.5141 14.19 18.0365 14.508 17.4778 14.6958C16.9191 14.8835 16.3043 14.9327 15.7112 14.8369C15.118 14.7412 14.5732 14.505 14.1456 14.158C13.718 13.8111 13.4267 13.369 13.3088 12.8878C13.1908 12.4066 13.2513 11.9078 13.4828 11.4545C13.7142 11.0012 14.1061 10.6138 14.6089 10.3412C15.1118 10.0686 15.7029 9.92308 16.3077 9.92308C17.1186 9.92308 17.8964 10.1844 18.4698 10.6497C19.0432 11.1149 19.3654 11.7459 19.3654 12.4038Z" fill="#E7AE22"/>
</svg>
