<svg width="65" height="54" viewBox="0 0 65 54" fill="none" xmlns="http://www.w3.org/2000/svg">
<rect width="65" height="54" fill="black"/>
<path d="M54.1667 27C54.1667 31.7739 51.884 36.3523 47.8207 39.7279C43.7574 43.1036 38.2464 45 32.5 45C26.7537 45 21.2427 43.1036 17.1794 39.7279C13.1161 36.3523 10.8334 31.7739 10.8334 27C10.8334 22.2261 13.1161 17.6477 17.1794 14.2721C21.2427 10.8964 26.7537 9 32.5 9C38.2464 9 43.7574 10.8964 47.8207 14.2721C51.884 17.6477 54.1667 22.2261 54.1667 27ZM32.5 49.5C47.4581 49.5 59.5834 39.4268 59.5834 27C59.5834 14.5733 47.4581 4.5 32.5 4.5C17.5419 4.5 5.41669 14.5733 5.41669 27C5.41669 39.4268 17.5419 49.5 32.5 49.5ZM33.4696 21.1095C30.8371 22.02 25.573 23.9048 17.6773 26.7638C16.3936 27.1868 15.7219 27.6007 15.6623 28.0057C15.5594 28.6897 16.5913 28.9598 17.9969 29.3265L18.5873 29.484C19.9686 29.8575 21.8319 30.294 22.7988 30.312C23.6763 30.327 24.6549 30.027 25.7346 29.412C33.1121 25.272 36.92 23.1803 37.1584 23.1367C37.329 23.1052 37.5619 23.0648 37.719 23.1818C37.8788 23.2988 37.8625 23.5192 37.8463 23.58C37.7434 23.9422 33.6917 27.072 31.5954 28.6898C30.9743 29.1758 30.3577 29.6655 29.7456 30.159C28.4619 31.1873 27.4977 31.959 29.7998 33.219C32.1317 34.497 34.4852 35.7705 36.7602 37.1182C37.8815 37.7842 38.889 38.3783 40.1348 38.286C40.8579 38.2298 41.6054 37.665 41.9846 35.9775C42.8838 31.995 44.6469 23.3595 45.0532 19.8C45.0767 19.5047 45.0613 19.2082 45.0071 18.9157C44.9751 18.6804 44.8378 18.4635 44.6225 18.3083C44.2975 18.0878 43.7965 18.0428 43.5744 18.045C42.5561 18.0608 40.9934 18.5107 33.4723 21.1095" fill="#E7AE22"/>
</svg>
